<?xml version="1.0" encoding="UTF-8"?>
<svg xmlns="http://www.w3.org/2000/svg" viewBox="0 0 300 150" width="300" height="150">
  <path d="M150,75 C150,75 180,50 220,40 C260,30 290,35 290,35 C290,35 280,55 270,65 C260,75 250,80 250,80 
         C250,80 260,85 270,95 C280,105 290,115 290,115 C290,115 260,120 220,110 C180,100 150,75 150,75 Z" 
        fill="#333333" stroke="#333333" stroke-width="2"/>
  <path d="M150,75 C150,75 120,50 80,40 C40,30 10,35 10,35 C10,35 20,55 30,65 C40,75 50,80 50,80 
         C50,80 40,85 30,95 C20,105 10,115 10,115 C10,115 40,120 80,110 C120,100 150,75 150,75 Z" 
        fill="#333333" stroke="#333333" stroke-width="2"/>
  <!-- Голова дракона -->
  <circle cx="150" cy="70" r="20" fill="#333333" stroke="#333333" stroke-width="2"/>
  <!-- Глаза -->
  <circle cx="142" cy="65" r="3" fill="#FFFFFF"/>
  <circle cx="158" cy="65" r="3" fill="#FFFFFF"/>
  <!-- Тело дракона с волнистой линией -->
  <path d="M130,75 Q140,90 150,85 Q160,80 170,85 Q180,90 190,85" 
        fill="none" stroke="#333333" stroke-width="3" stroke-linecap="round"/>
</svg> 